<?xml version="1.0" encoding="UTF-8"?>
<!DOCTYPE svg PUBLIC "-//W3C//DTD SVG 1.1//EN" "http://www.w3.org/Graphics/SVG/1.1/DTD/svg11.dtd">
<!-- Creator: CorelDRAW 2018 (64 Bit Versão de avaliação) -->
<svg xmlns="http://www.w3.org/2000/svg" xml:space="preserve" width="59.2666mm" height="59.2666mm" version="1.1" style="shape-rendering:geometricPrecision; text-rendering:geometricPrecision; image-rendering:optimizeQuality; fill-rule:evenodd; clip-rule:evenodd"
viewBox="0 0 5926.66 5926.66"
 xmlns:xlink="http://www.w3.org/1999/xlink">
 <defs>
  <style type="text/css">
   <![CDATA[
    .fil1 {fill:#FA9819}
    .fil0 {fill:#333333;fill-rule:nonzero}
   ]]>
  </style>
 </defs>
 <g id="Camada_x0020_1">
  <metadata id="CorelCorpID_0Corel-Layer"/>
  <g id="_1640737770432">
   <path class="fil0" d="M2259.27 3682.49c33.18,49.19 20.2,115.98 -28.99,149.15 -49.19,33.18 -115.98,20.2 -149.15,-28.99 -18.6,-27.54 -36.82,-57.68 -54.51,-90.25l-0.09 -0.18 -0.33 0.18c-15.42,-28.44 -30.63,-60.3 -45.49,-95.44 -27.93,-66.04 -49.58,-135.6 -64.18,-207.91 -14.43,-71.5 -22.01,-144.08 -22.01,-216.86 0,-301.5 122.23,-574.5 319.83,-772.11 197.6,-197.6 470.6,-319.83 772.1,-319.83 301.5,0 574.5,122.23 772.12,319.83 197.59,197.61 319.83,470.61 319.83,772.11 0,35.08 -2,71.98 -5.86,110.38 -3.72,36.96 -9.31,73.5 -16.67,109.44 -7.3,35.72 -16.21,70.41 -26.61,103.89 -10.5,33.86 -22.9,67.62 -37.05,101.06 -13.86,32.75 -29.16,64.55 -45.83,95.23l0.33 0.18c-16.54,30.48 -34.9,60.63 -54.92,90.27 -33.17,49.19 -99.96,62.16 -149.16,28.99 -49.19,-33.17 -62.16,-99.96 -28.99,-149.15 15.45,-22.87 30.16,-47.13 44,-72.64l0.33 0.18 0.09 -0.18c13.48,-24.82 25.74,-50.23 36.66,-76.07 10.89,-25.74 20.76,-52.76 29.48,-80.88 8.64,-27.8 15.87,-55.78 21.58,-83.74 5.85,-28.6 10.32,-57.85 13.32,-87.59 2.73,-27.25 4.15,-57.03 4.15,-89.37 0,-242.13 -98.14,-461.35 -256.79,-620.01 -158.66,-158.64 -377.88,-256.79 -620.01,-256.79 -242.13,0 -461.35,98.15 -620,256.79 -158.64,158.66 -256.79,377.88 -256.79,620.01 0,61.32 5.85,119.76 16.96,174.84 11.64,57.68 29.05,113.48 51.57,166.74 9.95,23.51 22.35,48.93 37.09,76.1l-0.33 0.18c12.68,23.33 27.49,47.52 44.32,72.44zm278.73 602.12l-346.9 -217.71c-26.05,-16.35 -41.12,-42.1 -42.59,-72.82 -0.13,-2.68 -0.15,-5.32 -0.07,-7.94 41.97,-0.32 84.31,-12.54 121.64,-37.71 54.76,-36.93 87.71,-94.28 95.6,-155.15 12.49,-1.45 25.39,-0.18 38.29,3.89 29.34,9.25 50.4,30.38 59.58,59.73l122.2 390.91c4.1,13.07 -0.18,26.66 -11.05,35.04 -10.86,8.37 -25.1,9.05 -36.7,1.76zm896.95 0l346.91 -217.71c26.04,-16.35 41.11,-42.1 42.59,-72.82 0.13,-2.68 0.15,-5.33 0.07,-7.95 -42,-0.32 -84.35,-12.54 -121.69,-37.72 -54.75,-36.92 -87.71,-94.26 -95.6,-155.13 -12.48,-1.45 -25.37,-0.17 -38.25,3.89 -29.34,9.25 -50.4,30.38 -59.58,59.73l-122.2 390.91c-4.09,13.07 0.18,26.66 11.05,35.04 10.86,8.37 25.1,9.05 36.7,1.76zm412.03 -2206.22c-17.07,-11.5 -29.25,-28.8 -35.43,-47.9 -7.09,-21.89 -6.29,-46.18 4.03,-66.84 19.34,-38.7 64.76,-50.05 101.43,-25.39 91.27,61.44 176.14,137.3 248.45,225.24 29.05,35.28 28.63,87.69 -0.96,117.04 -29.58,29.35 -77.13,24.56 -106.21,-10.73 -61.95,-75.4 -133.07,-138.77 -211.31,-191.42z"/>
   <path class="fil1" d="M1282.56 3078.3c45.03,0 81.53,36.5 81.53,81.53 0,45.03 -36.5,81.53 -81.53,81.53 -45.03,0 -81.53,-36.5 -81.53,-81.53 0,-45.03 36.5,-81.53 81.53,-81.53zm2682.01 -578.29c19.64,-60.67 33.68,-123.09 42.19,-186.27l-0.77 -0.92c-56.67,-68.92 -122.82,-128.45 -196.82,-178.26 -29.48,-19.84 -51.12,-49.48 -62.04,-83.22 -12.53,-38.7 -10.38,-81.42 7.88,-117.95 37.75,-75.55 130.22,-98.13 199.8,-51.3 10.01,6.74 19.93,13.63 29.75,20.66 -14.9,-60.25 -34.99,-119.19 -60.23,-175.94 -14.56,-32.72 -33.07,-67.07 -65.62,-82.04 -27.43,-12.63 -60.18,-8.66 -87.83,3.52 -27.62,12.18 -51.19,31.81 -74.44,51.08 -135.88,112.64 -274.47,222.03 -389.04,341.39 204.06,65.62 391.43,179.17 546.48,334.21 39.65,39.66 76.58,81.41 110.69,125.04zm-1993.75 -3.47c-79.97,-250.14 -65.42,-529.66 41.37,-769.73 14.55,-32.72 33.06,-67.07 65.62,-82.04 27.42,-12.63 60.18,-8.66 87.81,3.52 27.64,12.18 51.21,31.81 74.45,51.08 128.82,106.78 260.05,210.65 370.97,322.85 -185.84,59.22 -356.46,162.33 -497.51,303.38 -53.05,53.05 -100.71,110.29 -142.71,170.94zm2673.28 581.76c45.03,0 81.53,36.5 81.53,81.53 0,45.03 -36.5,81.53 -81.53,81.53 -45.03,0 -81.53,-36.5 -81.53,-81.53 0,-45.03 36.5,-81.53 81.53,-81.53z"/>
  </g>
 </g>
</svg>
